<?xml version="1.0" encoding="UTF-8" standalone="no"?><!DOCTYPE svg PUBLIC "-//W3C//DTD SVG 1.1//EN" "http://www.w3.org/Graphics/SVG/1.1/DTD/svg11.dtd"><svg width="100%" height="100%" viewBox="0 0 1651 561" version="1.1" xmlns="http://www.w3.org/2000/svg" xmlns:xlink="http://www.w3.org/1999/xlink" xml:space="preserve" xmlns:serif="http://www.serif.com/" style="fill-rule:evenodd;clip-rule:evenodd;stroke-linecap:round;stroke-linejoin:round;stroke-miterlimit:1.5;"><g><path d="M204.4,558.492l73.746,-556.929l-73.746,556.929Z" style="fill:#f7fbf5;stroke:#f7fbf5;stroke-width:3.13px;"/><path d="M383.546,558.492l-73.745,-556.929l73.745,556.929Z" style="fill:#f7fbf5;stroke:#f7fbf5;stroke-width:3.13px;"/><path d="M704.841,323.365l102.302,0l0,141.777c0,51.521 -41.829,93.35 -93.35,93.35c-51.521,-0 -93.35,-41.829 -93.35,-93.35c-0,-0 -0,-370.229 -0,-370.229c-0,-51.522 41.829,-93.35 93.35,-93.35c51.521,-0 93.349,41.827 93.35,93.35l-35.895,-0c-0,-31.71 -25.745,-57.455 -57.455,-57.455c-31.71,0 -57.454,25.744 -57.455,57.455l0,370.229c0.001,31.711 25.745,57.454 57.455,57.454c31.71,0 57.455,-25.744 57.455,-57.454l-0,-105.881l-66.407,0l0,-35.896Z" style="fill:#f7fbf5;stroke:#f7fbf5;stroke-width:3.13px;"/><path d="M309.801,1.563l73.745,556.929l-35.896,-0l-26.381,-199.231l-54.592,0l-26.381,199.231l-35.896,-0l73.746,-556.929l31.655,-0Zm-38.371,321.802l45.086,0l-22.543,-170.248l-22.543,170.248Z" style="fill:#f7fbf5;stroke:#f7fbf5;stroke-width:3.13px;"/><path d="M1156.01,1.563l73.745,556.929l-35.895,-0l-26.381,-199.231l-54.593,0l-26.381,199.231l-35.895,-0l73.745,-556.929l31.655,-0Zm-38.371,321.802l45.087,0l-22.544,-170.248l-22.543,170.248Z" style="fill:#f7fbf5;stroke:#f7fbf5;stroke-width:3.13px;"/><path d="M1373.65,1.563l73.745,556.929l-35.895,-0l-26.381,-199.231l-54.593,0l-26.381,199.231l-35.896,-0l73.746,-556.929l31.655,-0Zm-38.371,321.802l45.087,0l-22.544,-170.248l-22.543,170.248Z" style="fill:#f7fbf5;stroke:#f7fbf5;stroke-width:3.13px;"/><path d="M1.563,9.918l-0,548.574l169.339,-0l-0,-35.896l-133.444,0l0,-512.678l-35.895,0Z" style="fill:#f7fbf5;stroke:#f7fbf5;stroke-width:3.13px;"/><path d="M837.97,522.596l138.266,-485.138l-142.401,0l0,-35.895l179.726,-0l0,35.895l-138.266,485.138l142.401,0l0,35.896l-179.726,-0l0,-35.896Z" style="fill:#f7fbf5;stroke:#f7fbf5;stroke-width:3.13px;"/><path d="M545.076,558.492l-0,-248.332l-99.856,-231.303l0,479.635l-35.895,-0l-0,-556.929l41.624,-0l94.127,218.032l-0,-218.032l35.895,-0l0,556.929l-35.895,-0Z" style="fill:#f7fbf5;stroke:#f7fbf5;stroke-width:3.13px;"/><path d="M1513.29,2.173l49.855,205.033l50.001,-205.634l-0,-0.009l35.896,-0l-0,556.929l-35.896,-0l-0,-404.865l-50.001,205.634l-49.855,-205.033l0,404.264l-35.895,-0l-0,-556.929l35.895,-0l0,0.61Z" style="fill:#f7fbf5;stroke:#f7fbf5;stroke-width:3.13px;"/></g></svg>